<svg width="36" height="32" viewBox="0 0 36 32" fill="none" xmlns="http://www.w3.org/2000/svg">
<path d="M18.3594 0.890053H16.6401V4.25326H18.3594V0.890053Z" fill="#B53B3D"/>
<path d="M23.8703 30.1406H11.1288C9.64071 30.1406 8.43388 28.9247 8.43388 27.4244V6.96896C8.43388 5.46915 9.64026 4.25282 11.1288 4.25282H23.8703C25.3584 4.25282 26.5648 5.46915 26.5648 6.96896V27.4244C26.5652 28.9247 25.3588 30.1406 23.8703 30.1406Z" fill="#E34A4C"/>
<path d="M23.2915 4.25327H23.2675V30.141H23.2915C25.0992 30.141 26.5652 28.664 26.5652 26.8415V7.55277C26.5652 5.73079 25.0997 4.25327 23.2915 4.25327Z" fill="#D94749"/>
<path d="M11.6467 4.256C9.86735 4.28922 8.43433 5.75081 8.43433 7.55232V26.8411C8.43433 28.6426 9.86735 30.1042 11.6467 30.1374V4.256Z" fill="#EB4C4F"/>
<path d="M8 11.7091C8 11.3851 8.26051 11.1226 8.58152 11.1226H26.4185C26.7395 11.1226 27 11.3851 27 11.7091H8Z" fill="#ED4D4F"/>
<path d="M27 11.7091C27 12.0327 26.7395 12.2952 26.4185 12.2952H8.58152C8.26006 12.2952 8 12.0327 8 11.7091H27Z" fill="#D94749"/>
<path d="M8 23.1889C8 22.8654 8.26051 22.6028 8.58152 22.6028H26.4185C26.7395 22.6028 27 22.8654 27 23.1889H8Z" fill="#ED4D4F"/>
<path d="M27 23.1889C27 23.5129 26.7395 23.775 26.4185 23.775H8.58152C8.26006 23.775 8 23.5129 8 23.1889H27Z" fill="#D94749"/>
<path d="M10.4078 31.3037C10.4078 30.9797 10.6024 30.7176 10.8417 30.7176H24.1579C24.3976 30.7176 24.5922 30.9797 24.5922 31.3037H10.4078Z" fill="#E0494B"/>
<path d="M24.5922 31.3037C24.5922 31.6272 24.3976 31.8897 24.1579 31.8897H10.8417C10.6019 31.8897 10.4078 31.6272 10.4078 31.3037H24.5922Z" fill="#CC4345"/>
<path d="M24.5922 29.1704H23.0815V30.237H24.5922V29.1704Z" fill="#E84C4E"/>
<path d="M24.5922 30.237H23.0815V31.3037H24.5922V30.237Z" fill="#D64648"/>
<path d="M21.4237 29.1704H19.913V30.237H21.4237V29.1704Z" fill="#E84C4E"/>
<path d="M21.4237 30.237H19.913V31.3037H21.4237V30.237Z" fill="#D64648"/>
<path d="M18.2551 29.1704H16.7444V30.237H18.2551V29.1704Z" fill="#E84C4E"/>
<path d="M18.2551 30.237H16.7444V31.3037H18.2551V30.237Z" fill="#D64648"/>
<path d="M15.0866 29.1704H13.5759V30.237H15.0866V29.1704Z" fill="#E84C4E"/>
<path d="M15.0866 30.237H13.5759V31.3037H15.0866V30.237Z" fill="#D64648"/>
<path d="M11.9185 29.1704H10.4078V30.237H11.9185V29.1704Z" fill="#E84C4E"/>
<path d="M11.9185 30.237H10.4078V31.3037H11.9185V30.237Z" fill="#D64648"/>
<path d="M17.4998 21.1171C19.6479 21.1171 21.3893 19.362 21.3893 17.1969C21.3893 15.0319 19.6479 13.2767 17.4998 13.2767C15.3516 13.2767 13.6102 15.0319 13.6102 17.1969C13.6102 19.362 15.3516 21.1171 17.4998 21.1171Z" fill="#FF5456"/>
<path d="M16.0564 19.099C16.0564 19.099 14.901 18.7113 15.2026 17.4781C15.3137 17.0063 15.8518 16.6723 15.8518 16.6723C15.8518 16.6723 15.887 17.2634 16.1909 17.3526C16.4948 17.4417 16.8135 17.2201 16.7336 16.9712C16.6537 16.7223 16.3995 16.3774 16.2839 16.1431C16.1683 15.9083 16.3661 15.0728 16.7557 14.8198C17.1453 14.5663 17.3156 14.281 17.6519 14.1436C17.6519 14.1436 17.4366 14.6783 18.4429 15.4364C19.4497 16.1949 19.6218 16.457 19.689 16.741C19.7559 17.0249 19.9383 17.7371 19.4339 18.5206C18.9292 19.3042 18.666 19.4548 18.666 19.4548L17.754 20.243C17.754 20.243 17.1652 19.3238 16.0564 19.099Z" fill="#FFBA3B"/>
<path d="M16.534 18.871C16.534 18.871 15.6839 18.5621 16.0089 17.9946C16.0135 18.1302 16.8857 18.6722 17.2185 18.1275C17.5512 17.5823 17.623 17.0349 17.5183 16.6686C17.5183 16.6686 18.5106 17.2492 18.5161 18.3345C18.5161 18.3345 18.6768 18.0656 18.6759 17.6056C18.6759 17.6056 19.4276 18.2299 18.5635 19.2637L17.7901 19.883C17.7892 19.883 17.1562 19.0649 16.534 18.871Z" fill="#FFCC3B"/>
<path d="M23.459 0H11.5406V0.552874H23.459V0Z" fill="#E34A4C"/>
<path d="M22.8373 0.552872H12.1618V0.890056H22.8373V0.552872Z" fill="#D94749"/>
<path d="M22.8377 0.890053H21.1185V4.25326H22.8377V0.890053Z" fill="#EB4D4F"/>
<path d="M13.8811 0.890053H12.1618V4.25326H13.8811V0.890053Z" fill="#EB4D4F"/>
<path d="M19.3333 3.67947H15.6663V4.25327H19.3333V3.67947Z" fill="#ED4D4F"/>
<path d="M18.7996 2.57144H16.2V3.67901H18.7996V2.57144Z" fill="#FA5153"/>
<path d="M19.6723 1.34647H15.3272V1.93484H19.6723V1.34647Z" fill="#FA5153"/>
<path d="M17.6975 1.93484H17.302V2.57144H17.6975V1.93484Z" fill="#ED4D4F"/>
</svg>
