<?xml version="1.0" encoding="UTF-8"?>
<svg id="Layer_2" data-name="Layer 2" xmlns="http://www.w3.org/2000/svg" viewBox="0 0 495.64 496.28">
  <defs>
    <style>
      .cls-1 {
        fill: none;
        stroke: #292b76;
        stroke-miterlimit: 10;
        stroke-width: 6px;
      }

      .cls-2 {
        fill: #292b76;
        stroke-width: 0px;
      }
    </style>
  </defs>
  <g id="Layer_1-2" data-name="Layer 1">
    <g>
      <ellipse class="cls-1" cx="247.82" cy="248.14" rx="245.11" ry="244.72" transform="translate(-60.66 414.95) rotate(-73.44)"/>
      <g>
        <path class="cls-2" d="m126.46,262.51c-3.45,0-6.46-.52-9.02-1.56s-4.56-2.62-5.98-4.73c-1.43-2.12-2.17-4.77-2.23-7.96h9.44c.09,1.34.46,2.46,1.1,3.37.64.91,1.52,1.59,2.64,2.05,1.12.46,2.44.68,3.94.68,1.35,0,2.52-.18,3.51-.56.98-.37,1.74-.89,2.27-1.56.53-.67.79-1.45.79-2.34,0-.8-.25-1.48-.74-2.03s-1.23-1.05-2.21-1.48c-.98-.43-2.24-.81-3.76-1.14l-4.4-1.03c-3.58-.82-6.39-2.15-8.43-4.01-2.04-1.85-3.06-4.34-3.06-7.46,0-2.56.7-4.81,2.09-6.74,1.39-1.93,3.3-3.43,5.72-4.49,2.42-1.07,5.2-1.6,8.34-1.6s5.99.54,8.35,1.63c2.36,1.09,4.18,2.6,5.48,4.54,1.3,1.94,1.97,4.19,2,6.75h-9.44c-.13-1.5-.74-2.67-1.84-3.51-1.1-.83-2.63-1.25-4.59-1.25-1.3,0-2.39.17-3.28.52s-1.56.82-2,1.42c-.45.6-.67,1.29-.67,2.07,0,.85.25,1.57.75,2.16.5.58,1.21,1.07,2.14,1.46.93.39,2,.72,3.23,1l3.59.83c2,.43,3.79,1.01,5.36,1.74,1.57.73,2.89,1.61,3.98,2.63,1.09,1.02,1.91,2.2,2.48,3.53.57,1.34.85,2.83.85,4.48,0,2.62-.65,4.87-1.96,6.75-1.31,1.88-3.18,3.33-5.62,4.33-2.44,1-5.38,1.5-8.81,1.5Z"/>
        <path class="cls-2" d="m157.91,220.48v41.47h-9.82v-41.47h9.82Z"/>
        <path class="cls-2" d="m164.36,261.95v-41.47h9.82v33.45h17.34v8.02h-27.16Z"/>
        <path class="cls-2" d="m204.3,261.95l-14.25-41.47h11.05l5.76,18.12c.91,3.01,1.79,6.16,2.63,9.46.84,3.3,1.69,6.78,2.55,10.44h-2.14c.83-3.67,1.65-7.16,2.45-10.45.8-3.29,1.63-6.44,2.5-9.45l5.54-18.12h10.91l-13.86,41.47h-13.14Z"/>
        <path class="cls-2" d="m229.19,261.95l13.83-41.47h13.16l14.25,41.47h-11.02l-5.76-18.12c-.93-3.02-1.82-6.24-2.69-9.64-.86-3.4-1.73-6.93-2.6-10.59h2.2c-.83,3.67-1.64,7.21-2.42,10.62s-1.6,6.61-2.48,9.62l-5.57,18.12h-10.91Zm9.41-8.82v-7.51h22.46v7.51h-22.46Z"/>
        <path class="cls-2" d="m289.75,262.51c-3.45,0-6.46-.52-9.02-1.56s-4.56-2.62-5.98-4.73-2.17-4.77-2.23-7.96h9.44c.09,1.34.46,2.46,1.1,3.37.64.91,1.52,1.59,2.64,2.05,1.12.46,2.44.68,3.94.68,1.35,0,2.52-.18,3.51-.56.98-.37,1.74-.89,2.27-1.56.53-.67.79-1.45.79-2.34,0-.8-.25-1.48-.74-2.03-.49-.56-1.23-1.05-2.21-1.48-.98-.43-2.24-.81-3.76-1.14l-4.4-1.03c-3.58-.82-6.39-2.15-8.43-4.01-2.04-1.85-3.06-4.34-3.06-7.46,0-2.56.7-4.81,2.09-6.74,1.39-1.93,3.3-3.43,5.72-4.49,2.42-1.07,5.2-1.6,8.34-1.6s5.99.54,8.35,1.63c2.36,1.09,4.18,2.6,5.48,4.54s1.97,4.19,2,6.75h-9.43c-.13-1.5-.74-2.67-1.84-3.51-1.1-.83-2.63-1.25-4.59-1.25-1.3,0-2.39.17-3.28.52s-1.56.82-2,1.42c-.45.6-.67,1.29-.67,2.07,0,.85.25,1.57.75,2.16.5.58,1.21,1.07,2.14,1.46s2,.72,3.23,1l3.59.83c2,.43,3.79,1.01,5.36,1.74,1.57.73,2.89,1.61,3.98,2.63,1.09,1.02,1.91,2.2,2.48,3.53.57,1.34.85,2.83.85,4.48,0,2.62-.65,4.87-1.96,6.75-1.31,1.88-3.18,3.33-5.62,4.33-2.44,1-5.38,1.5-8.81,1.5Z"/>
        <path class="cls-2" d="m327.38,262.51c-3.45,0-6.46-.52-9.02-1.56s-4.56-2.62-5.98-4.73-2.17-4.77-2.23-7.96h9.44c.09,1.34.46,2.46,1.1,3.37.64.91,1.52,1.59,2.64,2.05,1.12.46,2.43.68,3.94.68,1.35,0,2.52-.18,3.51-.56.98-.37,1.74-.89,2.27-1.56.53-.67.79-1.45.79-2.34,0-.8-.25-1.48-.74-2.03s-1.23-1.05-2.21-1.48c-.98-.43-2.24-.81-3.76-1.14l-4.4-1.03c-3.58-.82-6.39-2.15-8.43-4.01-2.04-1.85-3.06-4.34-3.06-7.46,0-2.56.7-4.81,2.09-6.74,1.39-1.93,3.3-3.43,5.72-4.49,2.42-1.07,5.2-1.6,8.34-1.6s5.99.54,8.35,1.63c2.36,1.09,4.18,2.6,5.48,4.54s1.97,4.19,2,6.75h-9.44c-.13-1.5-.74-2.67-1.84-3.51-1.1-.83-2.63-1.25-4.59-1.25-1.3,0-2.39.17-3.28.52s-1.56.82-2,1.42c-.45.6-.67,1.29-.67,2.07,0,.85.25,1.57.75,2.16.5.58,1.21,1.07,2.14,1.46s2,.72,3.23,1l3.59.83c2,.43,3.79,1.01,5.36,1.74,1.57.73,2.89,1.61,3.98,2.63,1.09,1.02,1.91,2.2,2.48,3.53.57,1.34.85,2.83.85,4.48,0,2.62-.65,4.87-1.96,6.75-1.31,1.88-3.18,3.33-5.62,4.33-2.44,1-5.38,1.5-8.81,1.5Z"/>
        <path class="cls-2" d="m345.86,261.95l13.83-41.47h13.16l14.25,41.47h-11.02l-5.76-18.12c-.93-3.02-1.82-6.24-2.69-9.64-.86-3.4-1.73-6.93-2.6-10.59h2.2c-.84,3.67-1.64,7.21-2.42,10.62s-1.61,6.61-2.48,9.62l-5.57,18.12h-10.91Zm9.41-8.82v-7.51h22.46v7.51h-22.46Z"/>
      </g>
      <ellipse class="cls-1" cx="247.82" cy="248.14" rx="152.71" ry="152.47" transform="translate(-60.66 414.95) rotate(-73.44)"/>
      <g>
        <path class="cls-2" d="m184.4,404c4.13,1.67,7.47,3.75,10.01,6.25,2.55,2.5,4.17,5.35,4.87,8.53.7,3.18.36,6.62-1.02,10.31l-10.28-4.14c.56-1.79.62-3.45.2-4.98-.43-1.53-1.28-2.88-2.54-4.07-1.27-1.18-2.85-2.15-4.74-2.92-1.89-.76-3.64-1.15-5.26-1.17-1.61-.02-3.01.31-4.2.99s-2.04,1.67-2.57,2.99c-.47,1.18-.52,2.31-.14,3.39.38,1.08,1.12,2.17,2.2,3.28,1.08,1.11,2.48,2.26,4.19,3.46l5.1,3.71c3.93,2.82,6.67,5.87,8.23,9.14,1.55,3.27,1.57,6.78.06,10.52-1.26,3.12-3.19,5.51-5.81,7.17-2.61,1.66-5.64,2.55-9.08,2.67-3.44.12-7.03-.58-10.77-2.08-3.81-1.53-6.87-3.53-9.18-5.97-2.31-2.45-3.8-5.16-4.45-8.12-.66-2.96-.4-5.97.78-9.01l10.21,4.12c-.65,2.15-.42,4.12.71,5.88,1.12,1.77,3,3.18,5.63,4.24,1.78.72,3.4,1.07,4.88,1.08,1.47,0,2.72-.31,3.74-.95,1.02-.64,1.76-1.53,2.23-2.69.51-1.27.56-2.48.14-3.63-.42-1.15-1.16-2.24-2.22-3.27-1.06-1.03-2.23-2.01-3.53-2.93l-4.21-3.03c-1.97-1.36-3.73-2.83-5.26-4.42-1.53-1.58-2.76-3.27-3.68-5.05-.92-1.78-1.43-3.66-1.53-5.63-.1-1.97.28-4.05,1.16-6.22,1.26-3.12,3.14-5.52,5.64-7.21,2.51-1.69,5.5-2.57,8.99-2.64,3.49-.07,7.32.73,11.5,2.42Z"/>
        <path class="cls-2" d="m160.08,394.63l-34.97,43.33-8.86-7.15,14.13-17.51-18.84-15.21-14.13,17.51-8.89-7.17,34.97-43.33,8.89,7.17-14.9,18.47,18.84,15.21,14.9-18.47,8.86,7.15Z"/>
        <path class="cls-2" d="m119.5,359.99l-46.05,31.3-12.19-17.93c-2.38-3.5-3.78-6.89-4.21-10.18-.43-3.29.04-6.34,1.42-9.15,1.37-2.81,3.57-5.25,6.6-7.31,3.03-2.06,6.08-3.18,9.17-3.37,3.08-.19,6.05.56,8.9,2.25,2.85,1.69,5.48,4.3,7.88,7.84l8.26,12.16-7.63,5.19-7.24-10.65c-1.31-1.93-2.65-3.34-4.02-4.22-1.36-.88-2.78-1.27-4.24-1.18-1.46.09-2.95.65-4.48,1.69-1.57,1.06-2.67,2.26-3.31,3.6-.64,1.34-.82,2.82-.53,4.44.29,1.62,1.09,3.4,2.41,5.34l4.59,6.76,38.26-26.01,6.4,9.41Zm-17.39-25.58l-13.34,25.45-6.94-10.21,13.19-25.66,7.09,10.43Z"/>
        <path class="cls-2" d="m94.12,320.63l-52.62,18.21-12.17-35.15,8.93-3.09,8.45,24.4,12.71-4.4-7.81-22.57,8.79-3.04,7.81,22.57,13.24-4.58-8.47-24.47,8.93-3.09,12.19,35.22Z"/>
        <path class="cls-2" d="m80.82,279.56l-55.51,4.36-2.91-37.09,9.43-.74,2.02,25.74,13.41-1.05-1.87-23.81,9.28-.73,1.87,23.81,13.97-1.1-2.03-25.81,9.43-.74,2.92,37.16Z"/>
        <path class="cls-2" d="m80.33,220.02l-53.62-15.01,5.84-20.88c1.14-4.07,2.83-7.33,5.07-9.78,2.24-2.45,4.87-4.05,7.91-4.82,3.03-.76,6.31-.65,9.84.33,3.53.99,6.36,2.6,8.48,4.83,2.13,2.24,3.47,4.99,4.02,8.25.55,3.27.25,6.96-.91,11.08l-3.96,14.16-8.89-2.49,3.47-12.4c.63-2.25.84-4.18.63-5.79-.21-1.61-.82-2.94-1.83-4-1.01-1.06-2.4-1.83-4.18-2.33-1.82-.51-3.45-.58-4.89-.21-1.44.37-2.68,1.19-3.73,2.46-1.05,1.27-1.9,3.03-2.52,5.28l-2.2,7.87,44.55,12.47-3.07,10.96Zm8.33-29.79l-28.05,6.21,3.33-11.89,28.12-6.47-3.4,12.14Z"/>
        <path class="cls-2" d="m91.91,177.85l-36.23-46.35,8.16-12.5,57.27,14.15-6.92,10.59-27.37-7.23c-3.48-1-7.25-2.16-11.31-3.49-4.06-1.33-8.46-2.82-13.22-4.47l1.37-2.09c3.46,3.69,6.64,7.09,9.55,10.23,2.91,3.13,5.5,6.05,7.78,8.76l17.8,21.88-6.88,10.53Zm-4.33-17.01l-7.48-4.88,16.22-24.83,7.48,4.88-16.22,24.83Z"/>
        <path class="cls-2" d="m122.54,130.68l-33.24-44.67,14.01-10.42,22.5,15.12c1.01.74,2.28,1.72,3.8,2.95,1.52,1.23,3.13,2.58,4.84,4.04,1.71,1.46,3.35,2.89,4.94,4.29,1.58,1.4,2.94,2.63,4.06,3.68l-1.77,1.31c-.67-1.36-1.45-3-2.33-4.91-.88-1.91-1.77-3.89-2.68-5.95-.91-2.05-1.74-4-2.5-5.83-.76-1.83-1.34-3.33-1.76-4.52l-8.13-25.81,14.07-10.47,33.24,44.67-9.19,6.84-15.66-21.05c-.73-.98-1.62-2.21-2.68-3.69-1.06-1.48-2.19-3.08-3.39-4.81-1.21-1.73-2.42-3.46-3.66-5.2-1.23-1.74-2.4-3.38-3.51-4.91l.57-.42c.86,1.94,1.71,3.97,2.57,6.08.86,2.11,1.67,4.17,2.43,6.18.76,2.01,1.46,3.86,2.07,5.56.61,1.7,1.11,3.12,1.5,4.26l8.26,26.55-7.69,5.72-23.17-15.46c-.98-.7-2.19-1.57-3.63-2.63-1.44-1.06-3.01-2.24-4.71-3.55-1.7-1.31-3.45-2.67-5.25-4.08-1.79-1.41-3.53-2.81-5.22-4.2l.69-.51c1.09,1.42,2.29,2.97,3.59,4.64,1.3,1.67,2.62,3.34,3.94,5.01,1.32,1.67,2.54,3.23,3.67,4.68s2.06,2.68,2.82,3.7l15.66,21.05-9.07,6.75Z"/>
        <path class="cls-2" d="m193.69,29.63l10.78,54.63-11.17,2.2-10.78-54.63,11.17-2.2Zm18.8,53.05l-14.13,2.79-1.9-9.64,13.58-2.68c3.51-.69,6.34-1.9,8.47-3.61,2.13-1.72,3.54-4,4.22-6.85.68-2.85.62-6.32-.19-10.4-.8-4.06-2.06-7.27-3.78-9.63-1.72-2.36-3.88-3.94-6.48-4.72-2.6-.78-5.65-.83-9.14-.14l-13.91,2.74-1.9-9.64,14.57-2.87c5.47-1.08,10.39-.91,14.76.5,4.37,1.41,8.02,3.94,10.95,7.59s4.95,8.31,6.07,13.98c1.12,5.7,1.03,10.79-.29,15.29-1.32,4.5-3.74,8.24-7.28,11.21-3.53,2.97-8.07,5-13.61,6.09Z"/>
        <path class="cls-2" d="m257.37,23.37l-.95,55.67-11.38-.19.95-55.67,11.38.19Z"/>
        <path class="cls-2" d="m283.81,83.65c-4.35-.95-7.99-2.44-10.92-4.48-2.93-2.04-5.01-4.57-6.24-7.59-1.23-3.02-1.47-6.46-.73-10.33l10.83,2.35c-.25,1.86-.04,3.5.65,4.94.68,1.44,1.74,2.63,3.19,3.58,1.45.95,3.17,1.64,5.16,2.08,1.99.43,3.79.52,5.38.27,1.59-.25,2.92-.81,3.97-1.68,1.05-.87,1.73-2,2.03-3.38.27-1.24.12-2.36-.43-3.36-.56-1-1.47-1.96-2.72-2.87-1.25-.91-2.83-1.81-4.72-2.71l-5.65-2.8c-4.35-2.12-7.57-4.66-9.64-7.62-2.08-2.96-2.69-6.42-1.83-10.36.71-3.29,2.22-5.97,4.52-8.04,2.3-2.08,5.13-3.46,8.5-4.16,3.37-.7,7.03-.62,10.96.24,4.01.87,7.36,2.32,10.05,4.35,2.69,2.02,4.61,4.44,5.75,7.25,1.15,2.81,1.4,5.82.75,9.02l-10.76-2.34c.28-2.23-.28-4.13-1.69-5.68-1.41-1.55-3.49-2.63-6.26-3.24-1.87-.41-3.54-.49-4.99-.24-1.45.25-2.63.77-3.53,1.57-.9.8-1.48,1.81-1.75,3.02-.29,1.34-.13,2.54.48,3.6.61,1.06,1.52,2.01,2.74,2.85,1.22.84,2.54,1.6,3.97,2.3l4.66,2.28c2.17,1.01,4.15,2.16,5.93,3.47,1.78,1.3,3.27,2.76,4.48,4.36,1.2,1.6,2.02,3.37,2.46,5.29.43,1.93.4,4.04-.09,6.33-.71,3.29-2.16,5.97-4.35,8.06-2.18,2.09-4.99,3.46-8.42,4.12-3.43.66-7.34.51-11.74-.45Z"/>
        <path class="cls-2" d="m329.22,47.39l4.45-8.34,40.06,21.37-4.45,8.34-14.98-7.99-21.76,40.79-10.07-5.38,21.76-40.79-15.01-8.01Z"/>
        <path class="cls-2" d="m350.85,112.43l38.75-39.99,15.57,15.09c3.04,2.94,5.1,5.98,6.18,9.11,1.08,3.13,1.24,6.22.47,9.25-.77,3.03-2.43,5.86-4.98,8.49s-5.31,4.35-8.29,5.15-6.04.67-9.17-.4c-3.13-1.08-6.23-3.1-9.31-6.08l-10.56-10.23,6.42-6.63,9.24,8.96c1.68,1.63,3.28,2.73,4.79,3.31,1.51.58,2.98.68,4.39.3,1.41-.38,2.76-1.24,4.04-2.56,1.32-1.36,2.15-2.76,2.51-4.2.36-1.44.23-2.93-.38-4.46-.61-1.53-1.76-3.11-3.44-4.74l-5.87-5.69-32.2,33.22-8.17-7.92Zm22.21,21.53l7.91-27.62,8.87,8.6-7.72,27.8-9.06-8.78Z"/>
        <path class="cls-2" d="m435.75,124.75l-45.81,31.64-6.47-9.36,45.81-31.64,6.47,9.36Z"/>
        <path class="cls-2" d="m394.83,162.3l51.11-22.09,8.75,20.24c1.62,3.74,2.4,7.11,2.35,10.1-.05,2.99-.79,5.53-2.22,7.62-1.43,2.09-3.42,3.7-5.99,4.8-2.01.87-3.94,1.23-5.78,1.08-1.84-.15-3.54-.71-5.08-1.68-1.55-.97-2.91-2.25-4.08-3.83l-.51.22c.76,1.95,1,3.99.72,6.13-.28,2.14-1.1,4.14-2.46,5.98-1.36,1.85-3.3,3.32-5.81,4.4-2.7,1.17-5.4,1.55-8.1,1.14-2.7-.41-5.22-1.64-7.56-3.7-2.34-2.06-4.35-5.02-6.02-8.88l-9.31-21.54Zm13.12,6.72l3.91,9.04c1.32,3.06,2.88,5.04,4.69,5.94,1.8.9,3.67.93,5.62.09,1.44-.62,2.56-1.52,3.37-2.7.81-1.18,1.25-2.54,1.33-4.09s-.27-3.21-1.03-4.96l-4.03-9.32-13.86,5.99Zm21.03-9.09l3.57,8.25c.64,1.48,1.49,2.7,2.54,3.66,1.05.96,2.22,1.55,3.5,1.8,1.29.24,2.62.07,3.99-.52,1.85-.8,3.08-2.11,3.68-3.93.6-1.82.37-3.95-.69-6.39l-3.66-8.46-12.93,5.59Z"/>
        <path class="cls-2" d="m414.84,228.48c-.53-4.55-.15-8.63,1.15-12.25,1.3-3.62,3.34-6.55,6.14-8.79,2.8-2.24,6.21-3.6,10.25-4.07l35.89-4.18,1.32,11.3-34.96,4.08c-2.15.25-4.01.95-5.57,2.1-1.56,1.15-2.72,2.63-3.47,4.46-.75,1.83-.99,3.89-.73,6.19.27,2.32.98,4.29,2.14,5.89,1.15,1.61,2.62,2.79,4.4,3.54,1.78.76,3.75,1.01,5.9.76l34.97-4.08,1.32,11.34-35.89,4.19c-4.03.47-7.67-.07-10.91-1.62-3.24-1.55-5.91-3.94-8-7.16-2.09-3.22-3.41-7.12-3.94-11.69Z"/>
        <path class="cls-2" d="m463.6,263.64l9.31,1.68-8.06,44.69-9.3-1.68,3.01-16.71-45.49-8.2,2.03-11.24,45.49,8.2,3.02-16.75Z"/>
        <path class="cls-2" d="m398.09,323.56c2.19-4.38,5.17-7.83,8.93-10.33,3.76-2.5,8.05-3.82,12.88-3.95,4.83-.13,9.94,1.15,15.33,3.85,5.41,2.71,9.52,6.04,12.33,9.98,2.8,3.95,4.33,8.17,4.58,12.68.25,4.51-.72,8.95-2.91,13.33-2.2,4.4-5.18,7.85-8.93,10.34-3.75,2.49-8.05,3.8-12.89,3.92-4.84.12-9.97-1.17-15.38-3.88-5.39-2.7-9.48-6.02-12.28-9.96s-4.32-8.16-4.58-12.66c-.26-4.5.71-8.95,2.92-13.35Zm9.06,4.53c-1.29,2.58-1.79,5.15-1.49,7.7.3,2.55,1.41,4.98,3.34,7.28,1.93,2.3,4.66,4.33,8.21,6.11,3.59,1.79,6.88,2.77,9.88,2.94,3,.16,5.61-.4,7.83-1.7,2.22-1.29,3.98-3.23,5.27-5.81,1.28-2.56,1.77-5.12,1.47-7.69-.3-2.57-1.42-5.01-3.34-7.31-1.93-2.3-4.68-4.34-8.24-6.12-3.54-1.77-6.81-2.74-9.79-2.9s-5.6.41-7.83,1.71c-2.24,1.3-4,3.23-5.28,5.79Z"/>
        <path class="cls-2" d="m362.19,372.93l27.66,7.76-8.55,8.92-27.84-7.57,8.73-9.1Zm21.41-22.33l40.19,38.54-15,15.65c-2.93,3.05-5.95,5.13-9.08,6.23-3.13,1.1-6.21,1.27-9.25.52-3.04-.76-5.88-2.4-8.52-4.94-2.64-2.53-4.38-5.29-5.2-8.27-.82-2.98-.7-6.03.35-9.17,1.06-3.14,3.07-6.25,6.03-9.34l10.17-10.61,6.66,6.39-8.91,9.29c-1.62,1.69-2.71,3.29-3.29,4.81-.57,1.52-.67,2.98-.27,4.39.39,1.41,1.25,2.75,2.58,4.03,1.37,1.31,2.77,2.14,4.21,2.49,1.44.35,2.93.21,4.45-.41,1.53-.62,3.1-1.78,4.72-3.46l5.66-5.9-33.39-32.02,7.88-8.21Z"/>
        <path class="cls-2" d="m332.62,393.31c3.84-2.26,7.52-3.63,11.06-4.13,3.54-.49,6.78-.04,9.73,1.34,2.95,1.38,5.47,3.75,7.55,7.09l-9.55,5.62c-1.08-1.53-2.35-2.6-3.83-3.19-1.47-.59-3.07-.75-4.78-.46-1.71.28-3.44.94-5.2,1.98-1.76,1.03-3.14,2.19-4.14,3.45-1,1.27-1.59,2.58-1.78,3.93-.18,1.35.08,2.64.8,3.86.64,1.1,1.51,1.82,2.6,2.18,1.09.36,2.4.44,3.94.26,1.54-.18,3.31-.59,5.3-1.21l6.05-1.78c4.63-1.4,8.72-1.71,12.26-.95,3.54.76,6.33,2.89,8.38,6.36,1.71,2.9,2.42,5.89,2.14,8.97-.28,3.08-1.42,6.02-3.42,8.82-2,2.8-4.74,5.22-8.21,7.27-3.54,2.08-6.98,3.29-10.33,3.63-3.35.34-6.4-.13-9.15-1.42-2.75-1.29-4.97-3.32-6.67-6.11l9.49-5.59c1.31,1.83,3.01,2.84,5.09,3.03,2.09.19,4.35-.44,6.8-1.88,1.65-.97,2.93-2.04,3.83-3.21.9-1.17,1.41-2.35,1.53-3.54.12-1.2-.14-2.33-.77-3.4-.7-1.18-1.63-1.96-2.8-2.32-1.17-.37-2.49-.45-3.95-.23-1.46.21-2.95.55-4.47,1.01l-4.97,1.49c-2.28.74-4.52,1.23-6.71,1.48-2.19.25-4.27.2-6.24-.16s-3.77-1.1-5.4-2.22c-1.63-1.12-3.04-2.69-4.22-4.71-1.71-2.9-2.47-5.86-2.28-8.87.19-3.02,1.32-5.93,3.39-8.74s5.04-5.36,8.92-7.64Z"/>
        <path class="cls-2" d="m261.63,430.99l19.33-16.32-6.27,24.69,21.67,13.26-25.15,1.93-5.89,24.66-9.66-23.47-25.07,1.92,19.32-16.4-9.88-23.45,21.59,13.19Z"/>
      </g>
    </g>
  </g>
</svg>